# xmcd CD database file
#
# Track frame offsets:
#	180
#	19105
#	42375
#	63030
#	81787
#	99785
#	116622
#	136027
#	152167
#	172615
#
# Disc length: 2505 seconds
#
# Revision: 1
# Processed by: cddbd v1.5PL3 Copyright (c) Steve Scherf et al.
# Submitted via: cdripper 1.0.7
#
DISCID=6809c70a
DTITLE=Willie May - Blue Decade
DYEAR=1996
DGENRE=Blues
TTITLE0=I Won't Miss You
TTITLE1=Let It Rain
TTITLE2=Love Treats Me So Unkind
TTITLE3=Speak Your Mind
TTITLE4=Tell Me Amigo
TTITLE5=Hoedown
TTITLE6=Off Her Rocker
TTITLE7=Hey Buddy
TTITLE8=Let's Play House
TTITLE9=Friend of the Friendless
EXTD=YEAR: 1996
EXTT0=
EXTT1=
EXTT2=
EXTT3=
EXTT4=
EXTT5=
EXTT6=
EXTT7=
EXTT8=
EXTT9=
PLAYORDER=
